{"title":"Capricorn One(1977)MPEG-4[DaScubaDude]","uid":15477294,"size":1379958546,"categoryP":"video","categoryS":"movies","magnet":"?xt=urn:btih:e9ec0141b2283e6c2d2e7106df52004452c1a9de&amp;dn=Capricorn+One%281977%29MPEG-4%5BDaScubaDude%5D&amp;tr=udp%3A%2F%2Ftracker.leechers-paradise.org%3A6969&amp;tr=udp%3A%2F%2Fzer0day.ch%3A1337&amp;tr=udp%3A%2F%2Fopen.demonii.com%3A1337&amp;tr=udp%3A%2F%2Ftracker.coppersurfer.tk%3A6969&amp;tr=udp%3A%2F%2Fexodus.desync.com%3A6969","seeders":3,"leechers":0,"uploader":"dascuba","files":1,"time":1470200451,"description":"Capricorn One (1977)\r\nPG | 2h 3min | Action, Sci-Fi, Thriller | 2 June 1978 (USA)\r\nA NASA Mars mission won't work, and its funding is endangered, so they decide to fake it just this once. But then they have to keep the secret...\r\nDirector: Peter Hyams\r\nWriter: Peter Hyams\r\nStars: Elliott Gould, James Brolin, Brenda Vaccaro |\r\n\r\nGeneral\r\nComplete name                            : Capricorn OneCAPRICORN_ONE_Title1.mp4\r\nFormat                                   : MPEG-4\r\nFormat profile                           : Base Media\r\nCodec ID                                 : isom (isom/iso2/avc1/mp41)\r\nFile size                                : 1.29 GiB\r\nDuration                                 : 2h 3mn\r\nOverall bit rate mode                    : Variable\r\nOverall bit rate                         : 1 486 Kbps\r\nMovie name                               : CAPRICORN_ONE\r\nGenre                                    : Thriller\r\nWriting application                      : Lavf54.6.100\r\n\r\nVideo\r\nID                                       : 1\r\nFormat                                   : AVC\r\nFormat/Info                              : Advanced Video Codec\r\nFormat profile                           :   \r\nFormat settings, CABAC                   : No\r\nFormat settings, ReFrames                : 6 frames\r\nCodec ID                                 : avc1\r\nCodec ID/Info                            : Advanced Video Coding\r\nDuration                                 : 2h 3mn\r\nBit rate                                 : 1 207 Kbps\r\nWidth                                    : 720 pixels\r\nHeight                                   : 540 pixels\r\nDisplay aspect ratio                     : 4:3\r\nFrame rate mode                          : Constant\r\nFrame rate                               : 29.970 (30000/1001) fps\r\nColor space                              : YUV\r\nChroma subsampling                       : 4:2:0\r\nBit depth                                : 8 bits\r\nScan type                                : Progressive\r\nBits/(Pixel*Frame)                       : 0.104\r\nStream size                              : 1.04 GiB (81%)\r\n\r\nAudio\r\nID                                       : 2\r\nFormat                                   : AAC\r\nFormat/Info                              : Advanced Audio Codec\r\nFormat profile                           : LC\r\nCodec ID                                 : 40\r\nDuration                                 : 2h 3mn\r\nBit rate mode                            : Variable\r\nBit rate                                 : 272 Kbps\r\nMaximum bit rate                         : 386 Kbps\r\nChannel(s)                               : 2 channels\r\nChannel(s)_Original                      : 6 channels\r\nChannel positions                        : Front: L C R, Side: L R, LFE\r\nSampling rate                            : 44.1 KHz\r\nFrame rate                               : 43.066 fps (1024 spf)\r\nCompression mode                         : Lossy\r\nStream size                              : 241 MiB (18%)\r\nDefault                                  : Yes\r\nAlternate group                          : 1","torrent":{"xt":"urn:btih:e9ec0141b2283e6c2d2e7106df52004452c1a9de","amp;dn":"Capricorn+One%281977%29MPEG-4%5BDaScubaDude%5D","amp;tr":["udp%3A%2F%2Ftracker.leechers-paradise.org%3A6969","udp%3A%2F%2Fzer0day.ch%3A1337","udp%3A%2F%2Fopen.demonii.com%3A1337","udp%3A%2F%2Ftracker.coppersurfer.tk%3A6969","udp%3A%2F%2Fexodus.desync.com%3A6969"],"infoHash":"e9ec0141b2283e6c2d2e7106df52004452c1a9de","infoHashBuffer":{"type":"Buffer","data":[233,236,1,65,178,40,62,108,45,46,113,6,223,82,0,68,82,193,169,222]},"announce":[],"urlList":[]}}